<?xml version="1.0" encoding="utf-8"?>
<!DOCTYPE svg PUBLIC "-//W3C//DTD SVG 1.1//EN" "http://www.w3.org/Graphics/SVG/1.1/DTD/svg11.dtd">
<svg version="1.1" id="Layer_1" xmlns="http://www.w3.org/2000/svg" xmlns:xlink="http://www.w3.org/1999/xlink" x="0px" y="0px"
	 width="100px" height="100px" viewBox="0 0 100 100" style="enable-background:new 0 0 100 100;" xml:space="preserve">
<path style="fill:#80CDEA;" d="M100,94c0,3.313-2.687,6-6,6H6c-3.313,0-6-2.687-6-6V6c0-3.313,2.687-6,6-6h88c3.313,0,6,2.687,6,6
	V94z"/>
<g>
	<path style="fill:#FFFFFF;" d="M83,41.273c0,0.573-0.339,1.198-1.016,1.875l-14.18,13.828l3.359,19.531
		c0.025,0.182,0.039,0.442,0.039,0.781c0,0.547-0.137,1.009-0.41,1.387c-0.273,0.377-0.671,0.566-1.191,0.566
		c-0.495,0-1.016-0.156-1.562-0.469L50.5,69.555l-17.539,9.219c-0.573,0.312-1.094,0.469-1.562,0.469
		c-0.547,0-0.957-0.189-1.23-0.566c-0.273-0.378-0.41-0.84-0.41-1.387c0-0.156,0.025-0.417,0.078-0.781l3.359-19.531L18.977,43.148
		C18.325,42.445,18,41.82,18,41.273c0-0.963,0.729-1.562,2.188-1.797l19.609-2.852l8.789-17.773
		c0.494-1.067,1.133-1.602,1.914-1.602s1.419,0.534,1.914,1.602l8.789,17.773l19.609,2.852C82.271,39.711,83,40.311,83,41.273z"/>
</g>
</svg>
